<svg width="32" height="32" viewBox="0 0 32 32" fill="none" xmlns="http://www.w3.org/2000/svg">
<path d="M1.70711 16.7071L15.2929 30.2929C15.6834 30.6834 16.3166 30.6834 16.7071 30.2929L30.2929 16.7071C30.6834 16.3166 30.6834 15.6834 30.2929 15.2929L16.7071 1.70711C16.3166 1.31658 15.6834 1.31658 15.2929 1.70711L1.70711 15.2929C1.31658 15.6834 1.31658 16.3166 1.70711 16.7071Z" fill="white"/>
<path d="M10 23L16 29L22 23L16 17L10 23Z" fill="#E4B638"/>
<path d="M17 16L23 22L29 16L23 10L17 16Z" fill="#28BE48"/>
<path d="M3 16L9 22L15 16L9 10L3 16Z" fill="#D02828"/>
<path d="M10 9L16 15L22 9L16 3L10 9Z" fill="#4F76F4"/>
</svg>
